<?xml version="1.0" encoding="utf-8"?>
<!-- Generator: Adobe Illustrator 23.0.1, SVG Export Plug-In . SVG Version: 6.00 Build 0)  -->
<svg version="1.1" id="Lag_1" xmlns="http://www.w3.org/2000/svg" xmlns:xlink="http://www.w3.org/1999/xlink" x="0px" y="0px"
	 viewBox="0 0 55 77" style="enable-background:new 0 0 55 77;" xml:space="preserve">
<style type="text/css">
	.st0{fill:#2D48C5;}
</style>
<path class="st0" d="M2.69,75.62h8.26V47.33c2.27,2.96,4.94,5.26,8.02,6.9s6.42,2.46,10.01,2.46c7.07,0,12.79-2.54,17.15-7.63
	s6.55-11.87,6.55-20.36c0-8.58-2.18-15.36-6.55-20.37S36.06,0.83,28.98,0.83c-0.99,0-1.93,0.22-2.89,0.35V8.3
	c0.26-0.01,0.52-0.1,0.79-0.1c5.25,0,9.43,1.91,12.53,5.73c3.1,3.82,4.64,8.75,4.64,14.78S42.5,39.68,39.4,43.54
	c-3.1,3.86-7.27,5.79-12.53,5.79c-3.17,0-6.24-0.82-9.23-2.48c-2.99-1.65-5.22-3.68-6.69-6.08V29.49H2.69"/>
</svg>
