<?xml version="1.0" encoding="utf-8"?>
<!-- Generator: Adobe Illustrator 23.0.1, SVG Export Plug-In . SVG Version: 6.00 Build 0)  -->
<svg version="1.1" id="Lag_1" xmlns="http://www.w3.org/2000/svg" xmlns:xlink="http://www.w3.org/1999/xlink" x="0px" y="0px"
	 viewBox="0 0 705 100" style="enable-background:new 0 0 705 100;" xml:space="preserve">
<style type="text/css">
	.st0{fill:#030A2B;}
	.st1{fill:#2D48C5;}
</style>
<path class="st0" d="M65.91,76.35V23.18h8.26v8.39c2.3-2.91,4.98-5.24,8.04-6.99c3.06-1.76,6.32-2.63,9.77-2.63v8.39
	c-1.3-0.14-2.36-0.22-3.19-0.22c-2.56,0-5.33,0.87-8.31,2.61c-2.99,1.74-5.09,3.71-6.32,5.9v37.72H65.91z"/>
<path class="st0" d="M102.39,63.79c-2.11-4.22-3.17-8.92-3.17-14.09s1.06-9.85,3.17-14.05c2.11-4.2,5.19-7.55,9.21-10.06
	c4.03-2.51,8.69-3.77,13.99-3.77c5.3,0,9.96,1.25,13.99,3.77c4.03,2.51,7.09,5.86,9.19,10.06c2.09,4.19,3.14,8.88,3.14,14.05
	s-1.05,9.86-3.14,14.09c-2.1,4.22-5.16,7.59-9.19,10.12c-4.03,2.52-8.69,3.78-13.99,3.78c-5.3,0-9.96-1.26-13.99-3.78
	C107.58,71.39,104.5,68.01,102.39,63.79z M107.86,49.71c0,5.74,1.58,10.61,4.76,14.61c3.17,4.01,7.5,6,12.97,6
	c3.68,0,6.87-0.97,9.6-2.91c2.72-1.94,4.75-4.44,6.08-7.51c1.34-3.07,2-6.47,2-10.2c0-3.7-0.67-7.07-2-10.12
	c-1.33-3.05-3.36-5.54-6.08-7.48s-5.92-2.91-9.6-2.91s-6.88,0.97-9.62,2.91c-2.74,1.94-4.78,4.44-6.11,7.51
	C108.52,42.68,107.86,46.05,107.86,49.71z"/>
<path class="st0" d="M162.44,49.47c0-8.42,2.2-15.13,6.59-20.13c4.39-5,10.13-7.5,17.22-7.5c3.56,0,6.9,0.82,10.01,2.47
	c3.11,1.65,5.77,3.94,7.96,6.88v-8.01h8.26V75.6c0,4.05-0.7,7.56-2.1,10.54c-1.4,2.97-3.33,5.3-5.79,6.96
	c-2.46,1.67-5.15,2.89-8.05,3.66c-2.91,0.77-6.09,1.16-9.54,1.16c-4.68,0-8.66-0.57-11.96-1.72c-3.29-1.15-6.49-3.24-9.58-6.29
	l4.16-5.97c2.2,2.54,4.67,4.37,7.42,5.48c2.75,1.11,6.07,1.67,9.96,1.67c4.89,0,8.99-1.27,12.28-3.82
	c3.29-2.54,4.94-6.43,4.94-11.67v-8.06c-2.09,2.83-4.71,5.12-7.86,6.85c-3.15,1.74-6.52,2.61-10.12,2.61
	c-7.09,0-12.83-2.47-17.22-7.42C164.64,64.63,162.44,57.92,162.44,49.47z M171.08,49.47c0,5.95,1.54,10.8,4.62,14.54
	c3.08,3.75,7.28,5.62,12.61,5.62c3.17,0,6.23-0.83,9.18-2.5c2.95-1.67,5.2-3.7,6.75-6.1V37.69c-1.55-2.37-3.81-4.37-6.78-6.02
	c-2.97-1.65-6.02-2.47-9.15-2.47c-5.33,0-9.53,1.87-12.61,5.62C172.62,38.56,171.08,43.44,171.08,49.47z"/>
<path class="st0" d="M229.11,76.35V23.18h8.26v8.39c2.3-2.91,4.98-5.24,8.04-6.99c3.06-1.76,6.32-2.63,9.77-2.63v8.39
	c-1.3-0.14-2.36-0.22-3.19-0.22c-2.56,0-5.33,0.87-8.31,2.61c-2.99,1.74-5.09,3.71-6.32,5.9v37.72H229.11z"/>
<path class="st0" d="M262.42,49.68c0-5.09,1.12-9.76,3.37-14.01c2.25-4.25,5.39-7.62,9.42-10.11c4.03-2.49,8.55-3.74,13.55-3.74
	c5.26,0,9.87,1.27,13.79,3.82c3.93,2.54,6.9,5.96,8.9,10.24c2,4.28,3.01,9.11,3.01,14.49v2.1h-43.19c0.32,5.23,2.2,9.61,5.64,13.12
	s7.93,5.27,13.47,5.27c3.13,0,6.15-0.59,9.05-1.77c2.9-1.18,5.43-2.87,7.59-5.05l3.97,5.38c-5.66,5.52-12.74,8.28-21.25,8.28
	c-7.99,0-14.54-2.6-19.65-7.8C264.98,64.7,262.42,57.96,262.42,49.68z M271.17,46.29h35.04c-0.04-2.04-0.4-4.07-1.11-6.08
	s-1.74-3.89-3.1-5.65c-1.37-1.76-3.2-3.18-5.51-4.27c-2.3-1.09-4.91-1.64-7.83-1.64c-2.74,0-5.22,0.54-7.45,1.61
	c-2.23,1.08-4.04,2.48-5.43,4.22s-2.47,3.62-3.27,5.65S271.28,44.22,271.17,46.29z"/>
<path class="st0" d="M323.25,69.21l4.16-5.94c1.91,2.14,4.44,3.94,7.61,5.4c3.17,1.46,6.49,2.19,9.98,2.19c4,0,7.13-0.84,9.38-2.52
	c2.25-1.68,3.38-3.87,3.38-6.58c0-1.71-0.61-3.16-1.83-4.34c-1.22-1.18-2.82-2.04-4.79-2.6c-1.98-0.56-4.11-1.17-6.41-1.82
	c-2.3-0.65-4.64-1.31-7.01-1.99c-2.37-0.67-4.53-1.52-6.47-2.56c-1.94-1.03-3.53-2.5-4.75-4.41c-1.22-1.91-1.84-4.18-1.84-6.82
	c0-4.39,1.76-8.05,5.28-10.99s8.36-4.4,14.5-4.4c8.14,0,14.74,2.62,19.79,7.84l-3.83,5.67c-1.66-1.99-3.89-3.61-6.68-4.84
	c-2.79-1.23-5.88-1.85-9.27-1.85c-3.57,0-6.44,0.82-8.6,2.46c-2.17,1.64-3.25,3.69-3.25,6.16c0,1.58,0.59,2.92,1.79,4.01
	c1.19,1.08,2.76,1.9,4.7,2.44c1.94,0.54,4.08,1.14,6.41,1.78c2.32,0.65,4.67,1.3,7.05,1.96c2.38,0.66,4.54,1.52,6.5,2.57
	c1.95,1.05,3.55,2.56,4.79,4.53c1.24,1.97,1.86,4.3,1.86,6.98c0,4.68-1.83,8.54-5.49,11.58c-3.66,3.04-8.8,4.56-15.43,4.56
	C335.82,77.69,328.65,74.86,323.25,69.21z"/>
<path class="st0" d="M374.65,69.21l4.16-5.94c1.91,2.14,4.44,3.94,7.61,5.4c3.17,1.46,6.49,2.19,9.98,2.19c4,0,7.13-0.84,9.38-2.52
	c2.25-1.68,3.38-3.87,3.38-6.58c0-1.71-0.61-3.16-1.83-4.34c-1.22-1.18-2.82-2.04-4.79-2.6c-1.98-0.56-4.11-1.17-6.41-1.82
	c-2.3-0.65-4.64-1.31-7.01-1.99c-2.37-0.67-4.53-1.52-6.47-2.56s-3.53-2.5-4.75-4.41c-1.22-1.91-1.84-4.18-1.84-6.82
	c0-4.39,1.76-8.05,5.28-10.99s8.36-4.4,14.5-4.4c8.14,0,14.74,2.62,19.79,7.84l-3.83,5.67c-1.66-1.99-3.89-3.61-6.68-4.84
	c-2.79-1.23-5.88-1.85-9.27-1.85c-3.57,0-6.44,0.82-8.6,2.46c-2.17,1.64-3.25,3.69-3.25,6.16c0,1.58,0.59,2.92,1.79,4.01
	c1.19,1.08,2.76,1.9,4.7,2.44c1.94,0.54,4.08,1.14,6.41,1.78c2.32,0.65,4.67,1.3,7.05,1.96c2.38,0.66,4.54,1.52,6.5,2.57
	c1.95,1.05,3.55,2.56,4.79,4.53c1.24,1.97,1.86,4.3,1.86,6.98c0,4.68-1.83,8.54-5.49,11.58c-3.66,3.04-8.8,4.56-15.43,4.56
	C387.22,77.69,380.04,74.86,374.65,69.21z"/>
<path class="st0" d="M431.78,76.35V23.18h3.35v8.33c1.37-2.15,3.7-4.3,6.99-6.45c3.29-2.15,6.67-3.23,10.12-3.23
	c3.94,0,7.08,0.99,9.43,2.98s3.83,4.38,4.44,7.18c1.62-2.65,4.08-5.01,7.39-7.07c3.31-2.06,6.7-3.09,10.19-3.09
	c9.49,0,14.23,5.39,14.23,16.18v38.33h-3.35V38.01c0-8.78-3.82-13.17-11.48-13.17c-2.95,0-6.03,0.97-9.24,2.9
	c-3.22,1.94-5.65,4.27-7.3,6.99v41.61h-3.35V38.01c0-8.78-3.83-13.17-11.5-13.17c-2.92,0-5.95,0.98-9.1,2.93s-5.64,4.31-7.48,7.07
	v41.51H431.78z"/>
<path class="st0" d="M514.01,49.68c0-5.09,1.08-9.76,3.24-14.01c2.16-4.25,5.17-7.62,9.04-10.11s8.14-3.74,12.82-3.74
	c3.96,0,7.54,0.75,10.74,2.26c3.2,1.51,5.81,3.56,7.83,6.16c2.02,2.6,3.55,5.56,4.62,8.87c1.06,3.32,1.59,6.84,1.59,10.56v1.13
	h-46.11c0.11,4.37,1.06,8.35,2.86,11.94c1.8,3.58,4.41,6.47,7.83,8.66c3.42,2.19,7.32,3.28,11.72,3.28c7.34,0,13.53-2.67,18.57-8.01
	l2,2.1c-2.84,2.94-5.9,5.16-9.18,6.67c-3.28,1.51-7.07,2.26-11.39,2.26c-7.7,0-13.99-2.63-18.87-7.9
	C516.44,64.52,514.01,57.82,514.01,49.68z M517.78,47.85h42.54c0-2.08-0.27-4.18-0.81-6.32c-0.54-2.13-1.39-4.2-2.54-6.21
	c-1.15-2.01-2.54-3.78-4.16-5.32c-1.62-1.54-3.63-2.79-6.02-3.74c-2.39-0.95-4.99-1.42-7.8-1.42c-2.66,0-5.14,0.47-7.42,1.4
	c-2.29,0.93-4.25,2.16-5.88,3.68c-1.64,1.52-3.05,3.29-4.24,5.3c-1.19,2.01-2.08,4.08-2.67,6.21
	C518.19,43.56,517.86,45.7,517.78,47.85z"/>
<path class="st0" d="M577.12,49.79c0-8.39,2.19-15.14,6.56-20.27s10.14-7.69,17.3-7.69c3.89,0,7.52,0.94,10.91,2.82
	c3.38,1.88,6.17,4.44,8.37,7.66V2.91h3.35v73.44h-3.35v-8.92c-1.94,2.94-4.64,5.39-8.1,7.34c-3.46,1.95-7.18,2.93-11.18,2.93
	c-7.2,0-12.97-2.54-17.33-7.63S577.12,58.21,577.12,49.79z M586.11,31.89c-3.58,4.7-5.37,10.66-5.37,17.9s1.79,13.2,5.37,17.88
	s8.54,7.02,14.87,7.02c4,0,7.77-1.02,11.34-3.06c3.56-2.04,6.21-4.53,7.94-7.47V35.6c-1.73-2.97-4.37-5.51-7.94-7.61
	c-3.56-2.1-7.34-3.15-11.34-3.15C594.64,24.84,589.69,27.19,586.11,31.89z"/>
<path class="st0" d="M641.96,13.07c-0.65-0.65-0.97-1.4-0.97-2.26s0.32-1.6,0.97-2.23c0.65-0.63,1.4-0.94,2.27-0.94
	c0.9,0,1.66,0.3,2.27,0.91c0.61,0.61,0.92,1.36,0.92,2.26s-0.31,1.66-0.92,2.28c-0.61,0.63-1.37,0.94-2.27,0.94
	C643.36,14.04,642.6,13.71,641.96,13.07z M642.55,76.35V23.18h3.35v53.17H642.55z"/>
<path class="st0" d="M662.2,59.95c0-5.41,1.85-9.72,5.56-12.93c3.71-3.21,8.08-4.81,13.12-4.81c7.49,0,13.64,2.62,18.46,7.85V38.01
	c0-4.16-1.43-7.39-4.29-9.7s-6.43-3.47-10.72-3.47c-3.53,0-6.66,0.65-9.39,1.96c-2.74,1.31-5.33,3.43-7.77,6.37l-2.54-2.2
	c2.7-3.15,5.57-5.47,8.61-6.94c3.04-1.47,6.74-2.2,11.09-2.2c5.51,0,9.94,1.37,13.31,4.11c3.37,2.74,5.05,6.73,5.05,11.96v38.44
	h-3.35v-6.51c-4.82,5.23-10.98,7.85-18.46,7.85c-3.2,0-6.2-0.67-8.99-2.02s-5.1-3.4-6.94-6.16C663.12,66.76,662.2,63.57,662.2,59.95
	z M670.24,49.39c-2.92,2.81-4.37,6.34-4.37,10.56s1.46,7.74,4.37,10.54c2.92,2.8,6.75,4.19,11.5,4.19c3.56,0,6.88-0.69,9.96-2.07
	s5.62-3.4,7.64-6.05V53.34c-2.02-2.65-4.56-4.68-7.64-6.08s-6.4-2.1-9.96-2.1C676.99,45.17,673.16,46.57,670.24,49.39z"/>
<path class="st1" d="M2.69,96.62h8.26V68.33c2.27,2.96,4.94,5.26,8.02,6.9s6.42,2.46,10.01,2.46c7.07,0,12.79-2.54,17.15-7.63
	c4.36-5.09,6.55-11.87,6.55-20.36c0-8.58-2.18-15.36-6.55-20.37s-10.08-7.51-17.15-7.51c-0.99,0-1.93,0.22-2.89,0.35v7.12
	c0.26-0.01,0.52-0.1,0.79-0.1c5.25,0,9.43,1.91,12.53,5.73c3.1,3.82,4.64,8.75,4.64,14.78S42.5,60.68,39.4,64.54
	c-3.1,3.86-7.27,5.79-12.53,5.79c-3.17,0-6.24-0.82-9.23-2.48c-2.99-1.65-5.22-3.68-6.69-6.08V50.49H2.69"/>
</svg>
